<?xml version="1.0" standalone="no"?>
<!DOCTYPE svg PUBLIC "-//W3C//DTD SVG 20010904//EN"
 "http://www.w3.org/TR/2001/REC-SVG-20010904/DTD/svg10.dtd">
<svg version="1.0" xmlns="http://www.w3.org/2000/svg"
 width="500.000000pt" height="500.000000pt" viewBox="0 0 500.000000 500.000000"
 preserveAspectRatio="xMidYMid meet">

<g transform="translate(0.000000,500.000000) scale(0.100000,-0.100000)"
fill="#000000" stroke="none">
<path d="M1662 3333 c-18 -8 -57 -42 -87 -75 -78 -84 -73 -128 9 -82 30 17 42
20 48 11 6 -9 8 -8 8 3 0 8 26 29 58 46 60 33 73 55 52 93 -13 25 -43 26 -88
4z"/>
<path d="M2134 3336 c-3 -8 -1 -34 4 -58 6 -24 10 -33 11 -20 1 12 3 22 5 22
3 0 43 -13 89 -30 97 -34 107 -36 107 -15 0 21 -45 60 -106 89 -58 29 -102 33
-110 12z"/>
<path d="M3228 3308 c18 -9 22 -20 24 -62 l2 -51 3 50 c3 38 0 52 -13 62 -10
7 -23 13 -28 12 -6 0 -1 -5 12 -11z"/>
<path d="M3077 3292 c7 -4 22 -44 33 -87 17 -69 20 -73 16 -32 -3 42 -1 50 18
57 13 6 16 9 6 9 -9 1 -21 -4 -27 -10 -8 -8 -13 0 -18 30 -5 29 -12 41 -23 41
-12 0 -13 -3 -5 -8z"/>
<path d="M3030 3260 c0 -16 2 -30 4 -30 2 0 6 14 8 30 3 17 1 30 -4 30 -4 0
-8 -13 -8 -30z"/>
<path d="M3223 3225 c0 -38 2 -53 4 -32 2 20 2 52 0 70 -2 17 -4 1 -4 -38z"/>
<path d="M3274 3243 c-4 -21 -9 -42 -11 -46 -3 -4 -5 -62 -6 -129 -2 -87 -6
-122 -14 -125 -8 -3 -14 6 -14 24 -1 23 -2 24 -6 6 -4 -19 -11 -23 -41 -23
-20 0 -42 4 -49 8 -6 4 -21 45 -33 92 -12 47 -25 90 -30 95 -4 6 -13 26 -19
45 l-11 35 5 -34 c3 -19 2 -32 -1 -28 -10 9 -44 -12 -43 -26 0 -9 2 -9 6 1 2
6 13 12 23 12 10 0 22 -6 27 -12 8 -13 52 -156 53 -172 0 -4 -24 -5 -53 -2
-39 5 -57 3 -64 -6 -16 -20 -33 -247 -37 -482 -3 -189 -1 -214 16 -253 17 -38
23 -43 53 -43 18 0 113 -20 212 -45 98 -25 192 -45 210 -45 64 0 89 26 137
140 77 184 115 291 153 434 33 129 35 140 19 151 -16 12 -15 15 4 51 12 22 15
31 8 20 -40 -57 -41 -57 -75 -45 -18 6 -33 12 -33 14 0 1 12 24 26 51 27 51
11 38 -18 -15 -9 -17 -22 -31 -28 -31 -16 0 -12 18 10 40 11 11 17 27 14 37
-4 13 -3 14 3 5 7 -9 25 16 61 87 29 54 52 105 51 112 0 8 -25 -33 -55 -91
-32 -61 -53 -92 -50 -75 6 34 1 25 -34 -59 -19 -45 -22 -48 -48 -41 -53 13
-56 23 -32 126 43 182 50 204 67 217 15 10 15 12 1 12 -9 0 -21 -14 -28 -30
-12 -29 -14 -30 -36 -16 -21 15 -24 14 -47 -13 -35 -42 -52 -26 -52 46 l0 58
-36 3 c-35 3 -36 2 -43 -38 -6 -37 -8 -40 -26 -30 -13 7 -20 21 -20 40 0 27
-3 30 -30 30 -26 0 -30 -4 -36 -37z m56 5 c0 -12 -6 -29 -14 -37 -10 -11 -17
-56 -23 -140 -12 -179 -30 -168 -22 13 4 79 10 153 14 165 9 29 45 28 45 -1z
m130 -14 c0 -12 -13 -103 -30 -201 -16 -98 -30 -181 -30 -186 0 -4 -4 -6 -9
-3 -5 4 -11 1 -13 -6 -6 -18 -28 0 -28 23 0 11 -4 17 -10 14 -5 -3 -10 3 -10
14 0 11 -7 27 -16 36 -15 14 -16 33 -10 143 4 70 11 131 16 135 13 14 46 -1
58 -26 10 -21 11 -20 11 10 2 56 16 81 45 76 19 -4 26 -12 26 -29z m113 -75
c6 -10 0 -54 -18 -133 -23 -101 -31 -119 -51 -126 -12 -5 -30 -22 -38 -37 -18
-32 -21 -13 -6 37 6 19 22 84 36 145 31 134 48 159 77 114z m-77 -33 c6 -15
-51 -262 -66 -286 -20 -33 -20 5 0 127 12 70 24 138 27 151 6 25 31 30 39 8z
m-276 -371 c18 -22 3 -37 -23 -23 -12 6 -34 11 -49 10 -27 -2 -36 7 -21 21 12
13 81 7 93 -8z m341 -66 c26 -26 18 -36 -13 -15 -12 9 -37 16 -56 16 -20 0
-31 4 -27 10 11 18 74 11 96 -11z m-391 -38 c0 -13 -29 -35 -37 -28 -7 8 15
37 28 37 5 0 9 -4 9 -9z m330 -60 c0 -12 -26 -32 -33 -25 -9 10 4 34 19 34 8
0 14 -4 14 -9z m-212 -203 c20 -20 14 -28 -22 -28 -33 0 -62 20 -49 33 11 11
58 8 71 -5z"/>
<path d="M3330 3165 c5 -6 11 -67 13 -136 l3 -124 2 127 c1 91 6 128 15 131 6
2 0 6 -16 9 -20 4 -25 2 -17 -7z"/>
<path d="M3393 3070 c0 -25 2 -35 4 -22 2 12 2 32 0 45 -2 12 -4 2 -4 -23z"/>
<path d="M3535 3124 c-4 -22 -13 -70 -21 -107 -15 -73 -17 -93 -9 -85 8 8 47
219 41 225 -2 3 -8 -12 -11 -33z"/>
<path d="M3170 3241 c0 -5 5 -11 10 -13 6 -2 14 -23 19 -48 7 -36 9 -39 10
-15 1 42 -9 73 -25 79 -8 3 -14 1 -14 -3z"/>
<path d="M2119 3188 c-43 -70 2 -157 81 -157 38 -1 107 33 123 61 8 12 7 21
-3 33 -12 14 -25 16 -77 10 -65 -7 -107 0 -98 16 4 5 19 9 36 9 31 0 37 14 15
43 -21 27 -54 21 -77 -15z"/>
<path d="M3668 3213 c21 -8 14 -35 -44 -152 -30 -62 -53 -115 -51 -117 2 -2
21 33 42 77 32 65 43 79 60 77 21 -3 25 -24 10 -68 -15 -48 5 -13 30 51 21 55
22 61 6 41 -12 -13 -25 -20 -35 -16 -20 8 -20 11 -2 62 13 36 13 41 -1 46 -8
3 -18 6 -21 5 -4 0 -1 -3 6 -6z"/>
<path d="M2078 3203 c7 -3 16 -2 19 1 4 3 -2 6 -13 5 -11 0 -14 -3 -6 -6z"/>
<path d="M2430 3201 c0 -6 4 -13 10 -16 6 -3 7 1 4 9 -7 18 -14 21 -14 7z"/>
<path d="M1785 3180 c-14 -15 -16 -29 -12 -64 l6 -44 -34 1 c-69 2 -72 -44 -5
-82 28 -16 52 -21 82 -19 41 3 43 5 43 35 0 17 3 35 8 39 4 4 7 20 7 35 0 22
-6 29 -30 34 -33 7 -41 25 -11 25 31 0 33 17 5 39 -33 26 -36 26 -59 1z"/>
<path d="M3793 3162 c10 -10 17 -24 17 -31 0 -19 -41 -95 -56 -104 -8 -4 -19
-18 -25 -30 -9 -17 -6 -16 15 6 34 37 59 32 67 -13 l6 -35 2 32 c0 17 -6 38
-14 46 -13 14 -12 21 6 62 20 44 20 48 3 66 -9 10 -22 19 -27 19 -6 0 -3 -8 6
-18z"/>
<path d="M1642 3150 c0 -14 2 -19 5 -12 2 6 2 18 0 25 -3 6 -5 1 -5 -13z"/>
<path d="M3745 3160 c-3 -6 1 -7 9 -4 18 7 21 14 7 14 -6 0 -13 -4 -16 -10z"/>
<path d="M2440 3146 c-13 -16 -7 -46 9 -46 12 0 20 35 11 49 -5 9 -10 8 -20
-3z"/>
<path d="M2566 3127 c-10 -8 -17 -19 -15 -26 3 -9 9 -8 23 2 10 8 17 19 15 26
-3 9 -9 8 -23 -2z"/>
<path d="M3031 3120 c0 -8 8 -46 18 -85 11 -38 19 -63 20 -55 0 8 -8 47 -18
85 -11 39 -19 63 -20 55z"/>
<path d="M3001 3104 c0 -11 3 -14 6 -6 3 7 2 16 -1 19 -3 4 -6 -2 -5 -13z"/>
<path d="M3213 3070 c0 -25 2 -35 4 -22 2 12 2 32 0 45 -2 12 -4 2 -4 -23z"/>
<path d="M3133 3030 c0 -36 2 -50 4 -32 2 17 2 47 0 65 -2 17 -4 3 -4 -33z"/>
<path d="M1474 3069 c-8 -13 13 -29 39 -29 23 0 22 17 -2 30 -25 13 -28 13
-37 -1z"/>
<path d="M2565 3049 c-8 -11 22 -38 43 -39 19 0 14 28 -7 40 -25 13 -28 13
-36 -1z"/>
<path d="M2354 3039 c-4 -7 1 -18 11 -26 24 -17 35 -17 35 2 0 20 -36 39 -46
24z"/>
<path d="M2482 2993 c2 -10 13 -19 26 -21 24 -4 29 7 10 26 -18 18 -40 15 -36
-5z"/>
<path d="M2570 3001 c0 -6 4 -13 10 -16 6 -3 7 1 4 9 -7 18 -14 21 -14 7z"/>
<path d="M3751 2981 c-1 -13 -15 -48 -33 -79 -17 -30 -26 -52 -20 -48 6 3 25
31 42 61 17 29 38 56 48 58 13 4 12 5 -5 6 -12 0 -24 7 -26 14 -3 6 -6 1 -6
-12z"/>
<path d="M1593 2975 c-3 -9 -3 -19 1 -22 7 -7 36 16 36 28 0 15 -30 10 -37 -6z"/>
<path d="M1955 2970 c10 -11 20 -20 23 -20 3 0 -3 9 -13 20 -10 11 -20 20 -23
20 -3 0 3 -9 13 -20z"/>
<path d="M1346 2971 c-8 -13 15 -62 25 -55 5 3 9 13 9 23 0 22 -26 46 -34 32z"/>
<path d="M3790 2930 c-6 -11 -8 -20 -6 -20 3 0 10 9 16 20 6 11 8 20 6 20 -3
0 -10 -9 -16 -20z"/>
<path d="M1450 2925 c0 -12 7 -15 25 -13 14 2 26 8 26 13 0 6 -12 11 -26 13
-18 2 -25 -1 -25 -13z"/>
<path d="M3555 2919 c-4 -6 -5 -12 -2 -15 2 -3 7 2 10 11 7 17 1 20 -8 4z"/>
<path d="M1390 2861 c0 -15 31 -42 41 -36 12 8 12 11 -7 29 -17 18 -34 21 -34
7z"/>
<path d="M2220 2850 c-145 -23 -191 -36 -471 -124 -246 -77 -347 -104 -429
-113 l-61 -6 3 -42 c3 -42 3 -43 38 -40 58 5 175 42 268 84 198 89 334 117
522 107 105 -6 141 -4 224 14 126 26 215 26 265 1 l37 -20 12 33 c19 53 15 94
-10 108 -39 21 -257 20 -398 -2z"/>
<path d="M1920 2850 c0 -5 5 -10 11 -10 5 0 7 5 4 10 -3 6 -8 10 -11 10 -2 0
-4 -4 -4 -10z"/>
<path d="M1840 2820 c0 -5 5 -10 11 -10 5 0 7 5 4 10 -3 6 -8 10 -11 10 -2 0
-4 -4 -4 -10z"/>
<path d="M1242 2811 c-11 -7 -11 -9 2 -14 10 -4 16 -1 16 8 0 17 -1 17 -18 6z"/>
<path d="M1271 2787 c-25 -41 -21 -63 8 -47 24 12 32 35 22 61 -7 21 -9 20
-30 -14z"/>
<path d="M1316 2805 c-3 -8 -1 -15 4 -15 6 0 10 7 10 15 0 8 -2 15 -4 15 -2 0
-6 -7 -10 -15z"/>
<path d="M1695 2774 c0 -27 10 -32 18 -10 3 8 0 19 -6 24 -9 8 -12 4 -12 -14z"/>
<path d="M1371 2766 c-8 -10 -9 -16 -1 -21 7 -4 7 -12 0 -25 -13 -25 -13 -39
1 -20 9 12 10 10 5 -9 -2 -13 -1 -20 3 -15 5 5 11 27 14 49 5 30 4 36 -4 25
-9 -12 -10 -10 -6 8 6 26 4 27 -12 8z"/>
<path d="M1566 2735 c-3 -8 -1 -15 4 -15 6 0 10 7 10 15 0 8 -2 15 -4 15 -2 0
-6 -7 -10 -15z"/>
<path d="M1626 2731 c-4 -5 3 -7 14 -4 23 6 26 13 6 13 -8 0 -17 -4 -20 -9z"/>
<path d="M1261 2704 c0 -11 3 -14 6 -6 3 7 2 16 -1 19 -3 4 -6 -2 -5 -13z"/>
<path d="M2419 2711 c-14 -5 -50 -25 -80 -46 -52 -35 -57 -37 -114 -31 -33 3
-82 10 -108 14 -45 8 -54 6 -135 -34 -87 -44 -236 -94 -277 -94 -12 0 -39 14
-60 30 -21 17 -41 30 -44 30 -21 0 -76 -47 -104 -87 -43 -64 -94 -113 -117
-113 -11 0 -27 11 -36 25 -17 26 -54 34 -54 13 0 -24 40 -73 60 -74 11 -1 20
2 20 5 0 4 42 22 93 40 50 18 105 40 120 48 16 8 37 13 48 10 10 -3 19 -1 19
3 0 4 9 6 20 3 11 -3 17 -9 14 -14 -3 -5 2 -9 10 -9 9 0 16 5 16 10 0 6 -5 10
-11 10 -18 0 -4 23 15 26 10 1 20 5 23 8 4 3 12 -2 19 -12 12 -16 12 -16 11 3
-1 12 4 20 13 20 8 0 20 3 25 7 6 3 43 14 83 23 58 14 76 15 82 6 6 -10 8 -10
12 1 8 20 85 36 247 49 134 11 337 8 374 -7 12 -4 20 2 27 21 14 36 -6 60 -75
90 -63 28 -103 36 -136 26z"/>
<path d="M1293 2674 c-7 -20 12 -41 22 -23 6 8 4 10 -5 4 -9 -5 -10 -2 -5 14
7 24 -3 29 -12 5z"/>
<path d="M2286 2557 c3 -10 9 -15 12 -12 3 3 0 11 -7 18 -10 9 -11 8 -5 -6z"/>
<path d="M2620 2551 c0 -6 4 -12 9 -15 13 -8 42 4 35 15 -7 12 -44 12 -44 0z"/>
<path d="M1927 2506 c-21 -16 -22 -36 -1 -36 10 0 14 6 11 14 -3 8 -1 17 6 19
7 2 10 7 7 10 -3 3 -13 0 -23 -7z"/>
<path d="M1851 2494 c1 -21 16 -47 21 -38 4 5 0 18 -8 29 -8 10 -14 15 -13 9z"/>
<path d="M1800 2469 c0 -5 5 -7 10 -4 6 3 10 8 10 11 0 2 -4 4 -10 4 -5 0 -10
-5 -10 -11z"/>
<path d="M2366 2457 c3 -10 9 -15 12 -12 3 3 0 11 -7 18 -10 9 -11 8 -5 -6z"/>
<path d="M1750 2440 c0 -6 7 -10 15 -10 8 0 15 2 15 4 0 2 -7 6 -15 10 -8 3
-15 1 -15 -4z"/>
<path d="M1645 2411 c-3 -5 -2 -12 3 -15 5 -3 9 1 9 9 0 17 -3 19 -12 6z"/>
<path d="M2073 2385 c0 -22 2 -30 4 -17 2 12 2 30 0 40 -3 9 -5 -1 -4 -23z"/>
<path d="M1795 2400 c-8 -13 5 -13 25 0 13 8 13 10 -2 10 -9 0 -20 -4 -23 -10z"/>
<path d="M1740 2375 c0 -8 2 -15 4 -15 2 0 6 7 10 15 3 8 1 15 -4 15 -6 0 -10
-7 -10 -15z"/>
<path d="M1416 2307 c3 -10 9 -15 12 -12 3 3 0 11 -7 18 -10 9 -11 8 -5 -6z"/>
<path d="M2500 2305 c0 -9 62 -36 77 -33 8 2 -6 11 -31 20 -25 9 -46 15 -46
13z"/>
<path d="M1281 2264 c0 -11 3 -14 6 -6 3 7 2 16 -1 19 -3 4 -6 -2 -5 -13z"/>
<path d="M1861 2266 c4 -5 51 -14 77 -15 8 -1 10 -6 5 -13 -4 -7 -8 -19 -9
-26 -2 -10 1 -11 12 -1 8 6 14 17 14 25 0 7 8 18 18 23 13 8 0 10 -52 11 -38
0 -67 -2 -65 -4z"/>
<path d="M2295 2260 c3 -5 8 -10 11 -10 2 0 4 5 4 10 0 6 -5 10 -11 10 -5 0
-7 -4 -4 -10z"/>
<path d="M1756 2244 c-11 -8 -16 -14 -10 -14 13 0 39 18 34 24 -3 2 -14 -2
-24 -10z"/>
<path d="M2026 2251 c-4 -5 -2 -12 4 -16 5 -3 10 -3 10 2 0 4 5 1 10 -7 5 -8
10 -10 10 -4 0 17 -27 37 -34 25z"/>
<path d="M2103 2233 c-13 -13 -23 -25 -23 -26 0 -2 10 -3 23 -4 12 0 16 1 9 4
-10 4 -9 9 4 24 25 28 13 29 -13 2z"/>
<path d="M2150 2245 c0 -8 4 -15 9 -15 5 0 11 7 15 15 3 9 0 15 -9 15 -8 0
-15 -7 -15 -15z"/>
<path d="M2348 2213 c5 -21 7 -23 10 -9 2 10 0 22 -6 28 -6 6 -7 0 -4 -19z"/>
<path d="M1300 2196 c0 -10 9 -16 23 -17 12 0 46 -2 75 -5 29 -2 52 1 52 6 0
8 -84 16 -114 11 -4 -1 -14 4 -22 10 -11 9 -14 8 -14 -5z"/>
<path d="M1526 2195 c-3 -9 -18 -15 -37 -15 -18 0 -29 -3 -26 -7 4 -3 20 -6
36 -5 37 1 50 -32 17 -43 -11 -4 -25 -7 -29 -6 -5 1 -6 -3 -2 -9 4 -7 15 -5
32 4 23 11 28 11 44 -5 25 -25 78 -24 109 2 14 11 18 19 10 16 -8 -2 -24 5
-35 15 -11 11 -39 24 -62 31 -23 6 -40 14 -37 18 2 4 0 10 -5 13 -5 3 -11 -1
-15 -9z m39 -46 c11 -17 -1 -21 -15 -4 -8 9 -8 15 -2 15 6 0 14 -5 17 -11z
m49 -9 c33 -12 34 -30 1 -30 -14 0 -25 2 -25 4 0 2 -3 11 -6 20 -7 19 -4 19
30 6z"/>
<path d="M2025 2200 c-3 -5 -1 -10 4 -10 6 0 11 5 11 10 0 6 -2 10 -4 10 -3 0
-8 -4 -11 -10z"/>
<path d="M2189 2193 c-13 -16 -12 -17 4 -4 9 7 17 15 17 17 0 8 -8 3 -21 -13z"/>
<path d="M2265 2200 c-3 -5 -1 -10 4 -10 6 0 11 5 11 10 0 6 -2 10 -4 10 -3 0
-8 -4 -11 -10z"/>
<path d="M2312 2180 c-13 -17 -17 -27 -8 -24 11 4 41 54 33 54 -2 0 -13 -13
-25 -30z"/>
<path d="M1711 2183 c-1 -7 -8 -13 -17 -13 -8 0 -13 -4 -10 -9 4 -5 0 -12 -6
-14 -7 -3 -8 -6 -3 -6 18 -1 47 27 42 41 -4 10 -6 10 -6 1z"/>
<path d="M1947 2146 c-4 -10 -1 -13 8 -9 8 3 12 9 9 14 -7 12 -11 11 -17 -5z"/>
<path d="M2030 2140 c0 -5 -8 -7 -17 -3 -14 5 -15 3 -7 -7 8 -8 20 -9 35 -4
13 4 27 7 32 6 4 -1 7 3 7 8 0 6 -11 10 -25 10 -14 0 -25 -4 -25 -10z"/>
<path d="M2096 2138 c3 -5 10 -6 15 -3 13 9 11 12 -6 12 -8 0 -12 -4 -9 -9z"/>
<path d="M2145 2139 c-11 -16 -1 -19 13 -3 7 8 8 14 3 14 -5 0 -13 -5 -16 -11z"/>
<path d="M1845 2129 c-4 -6 -4 -13 -1 -16 3 -4 6 -1 6 6 0 7 5 9 12 5 7 -4 8
-3 4 4 -9 15 -13 15 -21 1z"/>
<path d="M1745 2110 c3 -5 8 -10 11 -10 2 0 4 5 4 10 0 6 -5 10 -11 10 -5 0
-7 -4 -4 -10z"/>
<path d="M1193 1839 c-68 -20 -123 -102 -123 -183 0 -46 38 -115 79 -141 94
-63 211 -32 262 68 43 84 9 201 -71 242 -39 20 -107 27 -147 14z m104 -93 c24
-21 28 -31 28 -79 0 -45 -5 -60 -24 -81 -31 -33 -65 -33 -96 -1 -21 20 -25 34
-25 80 0 46 4 60 25 80 30 31 56 32 92 1z"/>
<path d="M3617 1843 c-40 -6 -50 -35 -55 -153 -6 -174 20 -215 131 -206 106 8
176 81 177 184 0 46 -26 106 -58 135 -42 38 -113 52 -195 40z m128 -98 c21
-20 25 -34 25 -80 0 -46 -4 -60 -25 -80 -27 -28 -70 -33 -79 -9 -3 9 -6 49 -6
89 0 40 3 80 6 89 9 24 52 19 79 -9z"/>
<path d="M1469 1823 c-10 -11 -15 -54 -17 -147 -3 -147 6 -179 50 -184 35 -4
52 27 45 82 -3 23 -2 50 3 61 8 22 2 31 71 -92 24 -44 34 -53 57 -53 40 0 53
13 63 61 18 95 4 263 -24 281 -6 5 -23 7 -37 6 -23 -3 -25 -7 -30 -72 -3 -38
-10 -71 -16 -73 -6 -2 -21 19 -34 48 -43 91 -96 124 -131 82z"/>
<path d="M1804 1814 c-14 -20 -17 -50 -18 -142 0 -167 12 -182 148 -182 78 0
112 18 104 57 -3 15 -15 19 -66 21 -57 3 -64 5 -72 28 -6 14 -10 66 -10 115 0
50 -5 99 -10 110 -15 28 -56 24 -76 -7z"/>
<path d="M2083 1834 c-22 -10 -14 -42 32 -132 36 -69 45 -97 45 -137 0 -59 12
-75 57 -75 39 0 53 21 53 80 0 28 14 68 46 131 55 111 55 134 -1 134 -38 0
-41 -2 -65 -53 -14 -30 -29 -55 -34 -55 -4 -1 -19 23 -34 53 -23 47 -31 55
-57 57 -16 1 -36 0 -42 -3z"/>
<path d="M2663 1828 c-36 -18 -45 -57 -42 -186 4 -134 13 -155 63 -150 29 3
31 6 36 53 7 66 14 75 60 75 56 0 70 8 70 41 0 31 -11 36 -85 41 -35 3 -40 6
-40 28 0 23 4 25 45 28 71 4 90 10 90 31 0 38 -27 51 -103 50 -40 0 -82 -5
-94 -11z"/>
<path d="M2967 1806 c-72 -27 -107 -78 -107 -159 0 -117 136 -194 240 -136 56
32 80 73 80 141 0 115 -108 192 -213 154z m93 -36 c-8 -5 -12 -10 -8 -10 3 0
14 -3 24 -7 13 -5 15 -3 9 8 -5 8 4 3 19 -11 14 -13 24 -30 21 -38 -2 -7 -1
-11 4 -8 5 3 11 0 14 -7 3 -8 -11 -13 -47 -14 -29 -2 -70 -9 -91 -17 -40 -14
-40 -14 29 -8 54 4 67 2 61 -8 -4 -7 -18 -10 -35 -7 -15 3 -32 1 -37 -4 -5 -5
-26 -11 -46 -12 -20 -2 -42 -8 -49 -15 -15 -15 -28 -16 -28 -2 0 5 15 17 33
25 l32 14 -37 -5 -38 -6 6 33 c9 49 26 71 58 75 22 2 27 -1 24 -18 -3 -25 17
-36 25 -14 3 8 -3 24 -14 37 -10 12 -19 24 -19 26 0 1 24 3 53 3 37 0 48 -3
37 -10z m85 -142 c-11 -46 -43 -86 -82 -99 -42 -13 -103 -4 -103 16 0 8 -6 15
-14 15 -7 0 -19 6 -25 14 -9 11 -6 16 16 24 53 21 108 32 156 32 44 0 62 12
35 23 -8 3 -5 6 5 6 16 1 18 -4 12 -31z"/>
<path d="M3047 1743 c-8 -13 9 -26 35 -28 14 -1 15 1 7 12 -6 7 -15 11 -19 8
-5 -3 -10 0 -12 7 -3 9 -6 9 -11 1z"/>
<path d="M3327 1806 c-78 -29 -111 -81 -105 -166 5 -64 26 -99 79 -129 108
-61 239 18 239 144 0 112 -109 189 -213 151z m145 -63 c38 -38 48 -104 24
-151 -22 -42 -37 -41 -25 0 14 51 12 98 -6 98 -8 0 -15 6 -15 13 0 7 -3 8 -8
2 -12 -17 -59 -34 -68 -25 -5 5 -20 9 -34 10 -54 4 -53 5 -47 -70 6 -75 -1
-82 -29 -28 -22 42 -14 113 16 142 13 11 19 15 15 7 -5 -9 -4 -12 3 -7 7 4 12
13 12 21 0 20 19 25 78 21 44 -2 59 -8 84 -33z"/>
<path d="M3345 1759 c-4 -6 -5 -12 -2 -15 2 -3 7 2 10 11 7 17 1 20 -8 4z"/>
</g>
</svg>
